<svg width="24" height="24" viewBox="0 0 24 24" fill="none" xmlns="http://www.w3.org/2000/svg">
<path d="M7.10557 9.28885L6.65836 9.06525L6.65836 9.06525L7.10557 9.28885ZM10.0041 15.4708L9.50914 15.4001L9.50914 15.4001L10.0041 15.4708ZM12.5472 12.444L12.5181 12.9432L12.5181 12.9432L12.5472 12.444ZM13.1939 12.9126L13.6667 12.7502L13.6667 12.7502L13.1939 12.9126ZM10.0242 15.9915L9.85863 15.5197L9.85862 15.5197L10.0242 15.9915ZM9.98706 15.5259L10.4343 15.7495L10.4343 15.7495L9.98706 15.5259ZM9.80492 15.8902L9.35771 15.6665L9.35771 15.6665L9.80492 15.8902ZM9.98213 16.0179L9.62857 15.6643L9.62857 15.6643L9.98213 16.0179ZM13.5 11C13.5 10.7239 13.2761 10.5 13 10.5C12.7239 10.5 12.5 10.7239 12.5 11H13.5ZM14.9 11.3C15.0657 11.0791 15.0209 10.7657 14.8 10.6C14.5791 10.4343 14.2657 10.4791 14.1 10.7L14.9 11.3ZM15 13C15.2761 13 15.5 12.7761 15.5 12.5C15.5 12.2239 15.2761 12 15 12V13ZM16.5 6V8H17.5V6H16.5ZM7.5 8V6H6.5V8H7.5ZM7.05279 8.27639L6.65836 9.06525L7.55279 9.51246L7.94721 8.72361L7.05279 8.27639ZM6.5 9.73607V18H7.5V9.73607H6.5ZM8 19.5H16V18.5H8V19.5ZM17.5 18V9.73607H16.5V18H17.5ZM16.5 8H7.5V9H16.5V8ZM17.3416 9.06525L16.9472 8.27639L16.0528 8.72361L16.4472 9.51246L17.3416 9.06525ZM8 5.5H9.5V4.5H8V5.5ZM9 5V6.5H10V5H9ZM9.5 5.5H12V4.5H9.5V5.5ZM11.5 5V6.5H12.5V5H11.5ZM12 5.5H14.5V4.5H12V5.5ZM14.5 5.5H16V4.5H14.5V5.5ZM14 5V6.5H15V5H14ZM10.4991 15.5415C10.6582 14.4267 10.9411 13.7667 11.2725 13.3968C11.5789 13.0548 11.9718 12.9114 12.5181 12.9432L12.5762 11.9449C11.7917 11.8992 11.0777 12.1156 10.5277 12.7295C10.0026 13.3155 9.67939 14.2076 9.50914 15.4001L10.4991 15.5415ZM12.721 13.0751C12.7964 13.2948 12.797 13.4794 12.7463 13.6474C12.6937 13.8214 12.5746 14.0148 12.3514 14.2258C11.8938 14.6585 11.0776 15.0919 9.85863 15.5197L10.1898 16.4633C11.443 16.0234 12.4234 15.534 13.0385 14.9524C13.3516 14.6563 13.5878 14.3198 13.7036 13.9365C13.8212 13.5472 13.803 13.147 13.6667 12.7502L12.721 13.0751ZM9.53985 15.3023L9.35771 15.6665L10.2521 16.1138L10.4343 15.7495L9.53985 15.3023ZM9.35771 15.6665C9.04792 16.2861 9.84585 16.8613 10.3357 16.3714L9.62857 15.6643C9.94089 15.352 10.4497 15.7187 10.2521 16.1138L9.35771 15.6665ZM17.5 9.73607C17.5 9.5032 17.4458 9.27353 17.3416 9.06525L16.4472 9.51246C16.4819 9.58189 16.5 9.65845 16.5 9.73607H17.5ZM9.85862 15.5197C9.77419 15.5494 9.6948 15.5981 9.62857 15.6643L10.3357 16.3714C10.293 16.4141 10.2429 16.4447 10.1898 16.4633L9.85862 15.5197ZM16 19.5C16.8284 19.5 17.5 18.8284 17.5 18H16.5C16.5 18.2761 16.2761 18.5 16 18.5V19.5ZM12.5181 12.9432C12.6307 12.9497 12.7007 13.0161 12.721 13.0751L13.6667 12.7502C13.4987 12.2609 13.0424 11.972 12.5762 11.9449L12.5181 12.9432ZM6.5 18C6.5 18.8284 7.17157 19.5 8 19.5V18.5C7.72386 18.5 7.5 18.2761 7.5 18H6.5ZM6.5 8C6.5 8.55228 6.94772 9 7.5 9V8H6.5ZM16.5 8V9C17.0523 9 17.5 8.55228 17.5 8H16.5ZM17.5 6C17.5 5.17157 16.8284 4.5 16 4.5V5.5C16.2761 5.5 16.5 5.72386 16.5 6H17.5ZM9.50914 15.4001C9.51372 15.3681 9.52339 15.3352 9.53984 15.3023L10.4343 15.7495C10.4679 15.6823 10.4891 15.6114 10.4991 15.5415L9.50914 15.4001ZM6.65836 9.06525C6.55422 9.27353 6.5 9.5032 6.5 9.73607H7.5C7.5 9.65845 7.51807 9.58189 7.55279 9.51246L6.65836 9.06525ZM7.5 6C7.5 5.72386 7.72386 5.5 8 5.5V4.5C7.17157 4.5 6.5 5.17157 6.5 6H7.5ZM13.5 12.5V11H12.5V12.5H13.5ZM14.1 10.7L12.975 12.2L13.775 12.8L14.9 11.3L14.1 10.7ZM12.975 12.2L12.6 12.7L13.4 13.3L13.775 12.8L12.975 12.2ZM15 12H13.375V13H15V12ZM13.375 12H13V13H13.375V12ZM13 12H12.5V13H13V12Z" fill="black"/>
</svg>
