<svg width="24" height="24" viewBox="0 0 24 24" fill="none" xmlns="http://www.w3.org/2000/svg">
<path d="M8.23895 7.684H7.43745C6.98887 7.684 6.54998 7.81458 6.17435 8.05979L6.0509 8.14037C5.69416 8.37325 5.42668 8.71997 5.29196 9.12413C5.10774 9.67677 5.189 10.2835 5.51212 10.7682L5.55851 10.8378C5.84259 11.2639 6.2753 11.5688 6.77214 11.693L7.64171 11.9104C7.87967 11.9699 8.12403 12 8.36932 12H14C17.0958 11.8748 18.4323 11.408 18.5892 9.85305C18.6759 8.9935 18.0752 8.24514 17.3344 7.80066L16 7L15 6.5M8.23895 7.684L8.33897 7.23035C8.44083 6.76838 8.74581 6.37709 9.16894 6.16553C9.38665 6.05667 9.62673 6 9.87014 6H10.0802C10.3563 6 10.6286 6.06428 10.8755 6.18775C11.2769 6.38846 11.5876 6.73353 11.7452 7.15373L11.8001 7.3M8.23895 7.684L8.42044 8.25132C8.47272 8.41474 8.5633 8.5633 8.68462 8.68462C8.88656 8.88656 9 9.16044 9 9.44601V10M11.8001 7.3L12.1465 7.64642C12.3728 7.87281 12.5 8.17985 12.5 8.5V9M11.8001 7.3L11.8209 7.21683C11.9346 6.76186 12.2414 6.37929 12.6609 6.16957C12.8839 6.05806 13.1298 6 13.3792 6H14M14 6L15 6.5M14 6C14.3201 6 14.6272 6.12718 14.8536 6.35355L15 6.5M15 6.5L15.4962 7.24423C15.8247 7.73703 16 8.31605 16 8.90833V9M5 16.5H7M7 16.5L7.17794 16.6779C7.39125 16.8913 7.63756 17.0688 7.90738 17.2037C8.2971 17.3986 8.72685 17.5 9.16257 17.5H15.2929C15.7456 17.5 16.1799 17.3201 16.5 17L17 16.5M7 16.5L8 15.5C8.32014 15.1799 8.75435 15 9.20711 15H14.3374C14.7732 15 15.2029 15.1014 15.5926 15.2963C15.8624 15.4312 16.1087 15.6087 16.3221 15.8221L17 16.5M17 16.5H19" stroke="black" stroke-miterlimit="1.41421" stroke-linecap="round"/>
</svg>
