<svg width="24" height="24" viewBox="0 0 24 24" fill="none" xmlns="http://www.w3.org/2000/svg">
<path d="M19 12.5C19.2761 12.5 19.5 12.2761 19.5 12C19.5 11.7239 19.2761 11.5 19 11.5V12.5ZM18 12.5H19V11.5H18V12.5Z" fill="black"/>
<path d="M5 12H6" stroke="black" stroke-linecap="round"/>
<path d="M6.5 11V16.5C6.5 17.0523 6.94772 17.5 7.5 17.5H16.5C17.0523 17.5 17.5 17.0523 17.5 16.5V11" stroke="black"/>
<path d="M12 11.5V15V15.5M10 13.5H14" stroke="black"/>
<path d="M5 9.5H6M19 9.5H18M6 9.5C7.45958 7.74425 11.6203 7.51732 11.9757 7.50104C11.9938 7.50021 12.0062 7.50009 12.0243 7.50058C12.3749 7.51012 16.4238 7.65956 18 9.5M6 9.5H18" stroke="black" stroke-linecap="round"/>
<path d="M12 7.5V6" stroke="black" stroke-linecap="round"/>
</svg>
