<svg width="24" height="24" viewBox="0 0 24 24" fill="none" xmlns="http://www.w3.org/2000/svg">
<path d="M17.6916 8.214L17.1586 9.81312L18.6712 9.61882C19.2001 9.55088 19.5962 9.10062 19.5962 8.56735V8.52307C19.5962 8.19628 19.4329 7.89112 19.161 7.70985C18.6248 7.35235 17.8954 7.6026 17.6916 8.214Z" fill="black"/>
<path d="M16.8891 5H16.395C16.2037 5 16.0203 5.07598 15.885 5.21122C15.7058 5.39037 15.6338 5.65041 15.6953 5.89623L16.0546 7.33353L16.523 6.61269C16.5717 6.53777 16.628 6.46815 16.6912 6.40497L17.2427 5.85351C17.4379 5.65827 17.4379 5.34172 17.2427 5.14647C17.1489 5.05269 17.0218 5 16.8891 5Z" fill="black"/>
<path d="M11.4995 14.645L10.9752 15.4315C10.774 15.7333 10.8828 16.1433 11.2074 16.3056C11.4396 16.4217 11.72 16.3762 11.9036 16.1926L11.9137 16.1825C12.0306 16.0657 12.0963 15.9071 12.0962 15.7419L12.0962 15L12.0962 14.8258C12.0962 14.6459 11.9504 14.5 11.7705 14.5C11.6616 14.5 11.5599 14.5544 11.4995 14.645Z" fill="black"/>
<path d="M14.5962 7.5L13.4755 7.12642C12.2513 6.71835 10.9324 6.68968 9.69161 7.04419L9.51938 7.09339C8.58605 7.36006 7.73607 7.86019 7.0497 8.54656L6.90799 8.68827C6.37418 9.22209 5.97198 9.87286 5.73325 10.589L5.25805 12.0146C5.15446 12.3254 4.93166 12.5823 4.63866 12.7288V12.7288C4.29654 12.8998 4.04666 13.2196 4.01498 13.6008C3.98797 13.9257 3.98805 14.3003 4.09626 14.5C4.26265 14.8921 4.49184 15.1031 4.96127 15.4124C5.0489 15.4702 5.15202 15.5 5.25696 15.5V15.5C5.46491 15.5 5.65501 15.6175 5.748 15.8035L5.99706 16.3016C6.06281 16.4331 6.14579 16.5563 6.22956 16.6771C6.30147 16.7808 6.39476 16.9216 6.50322 17.0875C6.89487 17.6867 7.40662 18.2084 8.04592 18.5304C8.33722 18.6771 8.65845 18.8215 9.09626 19C10.1885 19.4596 10.8433 19.576 12.0963 19.5C13.7467 19.3294 14.6337 19.0278 15.8261 18.194C16.0071 18.0674 16.1716 17.9175 16.3121 17.7471C16.5367 17.4748 16.7014 17.2391 16.8222 16.9956C17.1037 16.4281 17.4801 15.872 18.0811 15.6717V15.6717C18.4155 15.5602 18.7203 15.3518 18.8812 15.0382C18.9406 14.9224 18.9902 14.8053 19.0393 14.6682C19.0791 14.5569 19.1073 14.4416 19.1224 14.3244C19.1539 14.08 19.1606 13.8504 19.1409 13.5247C19.121 13.1975 18.9186 12.9112 18.6254 12.7646V12.7646C18.3011 12.6024 18.0962 12.271 18.0962 11.9084L18.0962 11M11.5963 7C12.0876 7.40956 12.3637 7.69017 12.4989 7.94152C12.6802 8.27868 12.5138 8.76267 12.2674 9.05567V9.05567C11.8929 9.50099 11.2002 9.61955 10.7809 9.21615C10.7182 9.15585 10.6589 9.08436 10.5962 9M17.0963 10L17.6916 8.214C17.8954 7.6026 18.6248 7.35235 19.161 7.70985V7.70985C19.4329 7.89112 19.5962 8.19628 19.5962 8.52307V8.56735C19.5962 9.10062 19.2001 9.55088 18.6712 9.61882L17.1586 9.81312M16.0963 7.5L16.0546 7.33353M16.0546 7.33353L15.6953 5.89623C15.6338 5.65041 15.7058 5.39037 15.885 5.21122V5.21122C16.0203 5.07598 16.2037 5 16.395 5H16.8891C17.0218 5 17.1489 5.05269 17.2427 5.14647V5.14647C17.4379 5.34172 17.4379 5.65827 17.2427 5.85351L16.6912 6.40497C16.628 6.46815 16.5717 6.53777 16.523 6.61269L16.0546 7.33353ZM10.0962 12C9.3146 11.6001 8.87794 11.5549 8.09619 12M13.0962 12C13.9202 11.6365 14.3548 11.6813 15.0962 12M9.09619 15.5C11.1133 16.9528 12.1908 16.9721 14.0962 15.5M12.0962 15L12.0962 14.8258C12.0962 14.6459 11.9504 14.5 11.7705 14.5V14.5C11.6616 14.5 11.5599 14.5544 11.4995 14.645L10.9752 15.4315C10.774 15.7333 10.8828 16.1433 11.2074 16.3056V16.3056C11.4396 16.4217 11.72 16.3762 11.9036 16.1926L11.9137 16.1825C12.0306 16.0657 12.0963 15.9071 12.0962 15.7419L12.0962 15Z" stroke="black" stroke-linecap="round" stroke-linejoin="round"/>
</svg>
