<svg width="24" height="24" viewBox="0 0 24 24" fill="none" xmlns="http://www.w3.org/2000/svg">
<path d="M19 9C19 7.75297 17.6048 6 16.5 6C15.3952 6 14 7.75297 14 9C14 10.1585 14.6868 11.8703 15.6819 12V17.5067C15.6819 17.7791 15.9886 18 16.3676 18C16.7465 18 17.0533 17.7795 17.0533 17.507V12C18.047 11.868 19 10.1572 19 9Z" stroke="black" stroke-linecap="round" stroke-linejoin="round"/>
<path d="M5.33333 11.3333H14.6667M5.33333 14.6667H14.6667M5 13C5 13.6566 5.12933 14.3068 5.3806 14.9134C5.63188 15.52 6.00017 16.0712 6.46447 16.5355C6.92876 16.9998 7.47996 17.3681 8.08658 17.6194C8.69321 17.8707 9.34339 18 10 18C10.6566 18 11.3068 17.8707 11.9134 17.6194C12.52 17.3681 13.0712 16.9998 13.5355 16.5355C13.9998 16.0712 14.3681 15.52 14.6194 14.9134C14.8707 14.3068 15 13.6566 15 13C15 11.6739 14.4732 10.4021 13.5355 9.46447C12.5979 8.52678 11.3261 8 10 8C8.67392 8 7.40215 8.52678 6.46447 9.46447C5.52678 10.4021 5 11.6739 5 13Z" stroke="black" stroke-linecap="round" stroke-linejoin="round"/>
<path d="M9.72221 8C8.78629 9.49978 8.2901 11.2321 8.2901 13C8.2901 14.7679 8.78629 16.5002 9.72221 18M10.2778 8C11.2137 9.49978 11.7099 11.2321 11.7099 13C11.7099 14.7679 11.2137 16.5002 10.2778 18" stroke="black" stroke-linecap="round" stroke-linejoin="round"/>
</svg>
