<svg width="24" height="24" viewBox="0 0 24 24" fill="none" xmlns="http://www.w3.org/2000/svg">
<path d="M16.5 9H16.7929C17.2456 9 17.6799 9.17986 18 9.5C18.3201 9.82014 18.5 10.2544 18.5 10.7071V11V11.6966C18.5 12.5576 18.3357 13.4107 18.0159 14.2102C17.6755 15.0612 17.1658 15.8342 16.5177 16.4823L16.4881 16.5119C16.1635 16.8365 15.8076 17.1283 15.4256 17.3829L15.0948 17.6035C14.7 17.8666 14.2719 18.076 13.8218 18.2261C13.2775 18.4075 12.7075 18.5 12.1337 18.5H11.5H10.5H9.5H9.16257C8.72685 18.5 8.2971 18.3986 7.90738 18.2037C7.63756 18.0688 7.39125 17.8913 7.17794 17.6779L6.82206 17.3221C6.60875 17.1087 6.43122 16.8624 6.29631 16.5926C6.10145 16.2029 6 15.7732 6 15.3374V14.6626C6 14.2268 6.10145 13.7971 6.29631 13.4074L6.34189 13.3162C6.44661 13.1068 6.58442 12.9156 6.75 12.75C6.91558 12.5844 7.10678 12.4466 7.31623 12.3419L8 12L8.10557 11.9472C8.69377 11.6531 9.34237 11.5 10 11.5H11H12C12.3288 11.5 12.6531 11.4234 12.9472 11.2764L13.0926 11.2037C13.3624 11.0688 13.6087 10.8913 13.8221 10.6779L14 10.5L14.5 10L15 9.5C15.3201 9.17986 15.7544 9 16.2071 9H16.5Z" stroke="black" stroke-linecap="round" stroke-linejoin="round"/>
<path d="M18.5 6V6C18.8201 6.32014 19 6.75435 19 7.20711V7.5V7.5C19 7.82881 18.9234 8.15311 18.7764 8.44721L18.5 9M18.5 9L18.2071 9.29289C18.0745 9.4255 17.8946 9.5 17.7071 9.5H17.4045C17.1811 9.5 17 9.6811 17 9.90451V9.90451C17 9.96731 16.9854 10.0292 16.9573 10.0854L16.5 11M18.5 9L17.5 8.5L16.678 8.08902C16.5601 8.03006 16.4525 7.95248 16.3593 7.85925L16.3536 7.85355C16.1272 7.62718 16 7.32014 16 7V7M19 9.5L19.1558 9.65576C19.3838 9.88376 19.647 10.0735 19.9354 10.2177L20.5 10.5" stroke="black" stroke-linecap="round" stroke-linejoin="round"/>
</svg>
