<svg width="24" height="24" viewBox="0 0 24 24" fill="none" xmlns="http://www.w3.org/2000/svg">
<path d="M5.22795 12V11.5C4.98494 11.5 4.77711 11.6747 4.73538 11.9141L5.22795 12ZM19.2279 12L19.7182 11.9021C19.6716 11.6683 19.4663 11.5 19.2279 11.5V12ZM10.1578 11.6355C9.95646 11.8245 9.94648 12.1409 10.1355 12.3422C10.3245 12.5436 10.6409 12.5535 10.8423 12.3645L10.1578 11.6355ZM14.2279 8.5L14.5702 8.86452L14.7866 8.66131L14.7118 8.374L14.2279 8.5ZM15.2279 6L15.5815 5.64645C15.4585 5.52343 15.2803 5.4732 15.1112 5.51382L15.2279 6ZM18.2279 9L18.6608 8.74982L18.6279 8.69292L18.5815 8.64645L18.2279 9ZM16.2279 10L16.2618 9.50115L15.9908 9.48277L15.8279 9.7L16.2279 10ZM14.328 11.7C14.1623 11.9209 14.207 12.2343 14.428 12.4C14.6489 12.5657 14.9623 12.5209 15.128 12.3L14.328 11.7ZM5.22795 12.5H19.2279V11.5H5.22795V12.5ZM18.7376 12.0979C19.028 13.5533 18.8393 14.6466 18.2795 15.4245C17.7177 16.2051 16.7109 16.7676 15.1524 17.0057L15.3034 17.9943C17.0171 17.7324 18.3173 17.0838 19.0911 16.0087C19.8667 14.9311 20.042 13.5244 19.7182 11.9021L18.7376 12.0979ZM15.1524 17.0057C13.1791 17.3073 11.2119 17.2358 9.99467 17.1361L9.91307 18.1328C11.1681 18.2356 13.2218 18.3123 15.3034 17.9943L15.1524 17.0057ZM7.84019 16.5356C6.84747 16.0162 6.24293 15.4904 5.91672 14.8431C5.59082 14.1965 5.501 13.3453 5.72053 12.0859L4.73538 11.9141C4.49706 13.2814 4.56245 14.378 5.02372 15.2932C5.48467 16.2078 6.29926 16.8579 7.37656 17.4217L7.84019 16.5356ZM10.8423 12.3645L14.5702 8.86452L13.8857 8.13548L10.1578 11.6355L10.8423 12.3645ZM14.7118 8.374C14.6159 8.00563 14.5519 7.71084 14.5251 7.46866C14.4981 7.22543 14.5128 7.06956 14.5466 6.9652C14.5941 6.81844 14.7234 6.63536 15.3447 6.48618L15.1112 5.51382C14.3701 5.69178 13.8046 6.01017 13.5952 6.65735C13.5005 6.94996 13.4963 7.26418 13.5312 7.57893C13.5662 7.89475 13.6451 8.24583 13.7441 8.626L14.7118 8.374ZM14.8744 6.35355L17.8744 9.35355L18.5815 8.64645L15.5815 5.64645L14.8744 6.35355ZM17.795 9.25018C17.953 9.52355 17.9439 9.61311 17.946 9.5966C17.9495 9.56833 17.966 9.52952 17.9943 9.50109C18.015 9.48032 18.0204 9.48705 17.9759 9.50178C17.8764 9.53476 17.6889 9.55751 17.3745 9.55576C17.0712 9.55407 16.7016 9.53098 16.2618 9.50115L16.1941 10.4989C16.6285 10.5283 17.0293 10.5538 17.3689 10.5557C17.6974 10.5576 18.0254 10.5389 18.2905 10.451C18.4284 10.4053 18.5784 10.3318 18.703 10.2066C18.8353 10.0737 18.915 9.90635 18.9382 9.72107C18.9797 9.39055 18.8357 9.05234 18.6608 8.74982L17.795 9.25018ZM15.8279 9.7L14.328 11.7L15.128 12.3L16.6279 10.3L15.8279 9.7ZM9.99467 17.1361C9.23472 17.0739 8.49915 16.8805 7.84019 16.5356L7.37656 17.4217C8.17024 17.837 9.03899 18.0612 9.91307 18.1328L9.99467 17.1361Z" fill="black"/>
</svg>
