<svg width="24" height="24" viewBox="0 0 24 24" fill="none" xmlns="http://www.w3.org/2000/svg">
<path d="M10.9213 9.53044L10.3971 9.18099C9.76079 8.7568 9.01318 8.53044 8.24846 8.53044C8.03071 8.53044 7.81152 8.54667 7.59851 8.59187C5.93616 8.94463 5.34334 9.67995 5.08923 11.0054C4.89772 12.0043 5.00725 13.056 5.48806 13.9523C6.53655 15.9067 8.42126 17.5304 8.42126 17.5304M8.42126 17.5304L8.62832 17.7376C8.81585 17.9251 9.07021 18.0304 9.33542 18.0304H10.9212M8.42126 17.5304L7.92121 17.0304M8.42126 17.5304L8.42121 15.5303C8.42121 14.978 8.86893 14.5304 9.42121 14.5304H15.9212M8.42126 17.5304L8.42121 18.5304M10.4212 9.53044C11.054 9.29003 11.5163 8.8785 12.194 8.66385C12.6643 8.51485 13.172 8.53921 13.6577 8.62562C16.2452 9.08588 16.5439 10.7076 15.9212 14.5304M15.9212 14.5304C17.0259 14.4232 17.5876 14.0575 18.4212 12.5304M18.4212 10.0304V12.5304M18.4212 12.5304L18.167 14.8181C18.0116 16.2174 17.356 17.7839 15.9684 18.0225C15.9433 18.0268 15.9084 18.0304 15.883 18.0304H15.4212M10.9212 18.0304V16.5304M10.9212 18.0304H12.9212M12.9212 18.0304V16.5304M12.9212 18.0304H15.4212M15.4212 18.0304V16.5304M12.4212 5.53045C11.3802 6.00069 11.0288 7.06626 10.4212 9.03045M10.4212 8.53044C10.3617 6.56949 9.46343 4.96223 7.35666 5.00068C7.07838 5.00575 6.81307 5.15173 6.69912 5.40567C6.15129 6.62653 7.43996 7.62329 9.42121 8.53045" stroke="black"/>
</svg>
