<svg width="24" height="24" viewBox="0 0 24 24" fill="none" xmlns="http://www.w3.org/2000/svg">
<path d="M5.5 9L5 7L4.62979 5.88937C4.56594 5.69782 4.70852 5.5 4.91043 5.5C4.96883 5.5 5.02593 5.51729 5.07452 5.54968L6.16572 6.27715C6.38758 6.42506 6.62818 6.54273 6.88114 6.62705L8 7L10.7977 7.93258C10.9324 7.97747 11.0637 8.03186 11.1907 8.09535L12.5646 8.78228C12.853 8.92648 13.1162 9.11624 13.3442 9.34424L14.2899 10.2899C14.4296 10.4296 14.5552 10.5828 14.6648 10.7472L15.5 12L16.1833 13.3666C16.3916 13.7831 16.5 14.2425 16.5 14.7082V15.5V15.8486C16.5 16.2733 16.3743 16.6886 16.1387 17.042C15.7397 17.6405 15.0679 18 14.3486 18H13.5H12.9868C12.6644 18 12.344 17.948 12.0381 17.8461L11.3811 17.627C11.1282 17.5427 10.8876 17.4251 10.6657 17.2771L9.74717 16.6648C9.58279 16.5552 9.42964 16.4296 9.28995 16.2899L8.5 15.5L8.21005 15.2101C8.07036 15.0704 7.94481 14.9172 7.83522 14.7528L7 13.5L6.59535 12.6907C6.53186 12.5637 6.47747 12.4324 6.43258 12.2977L6 11L5.5 9Z" stroke="black" stroke-linecap="round" stroke-linejoin="round"/>
<path d="M8 9L11 11.5L12.5 13L14.7899 15.2899C14.9296 15.4296 15.0552 15.5828 15.1648 15.7472L15.7771 16.6657C15.9251 16.8876 16.0427 17.1282 16.127 17.3811L16.346 18.0381C16.448 18.344 16.5 18.6644 16.5 18.9868V20M13.5 7.5L15 5L15.25 4.5V4.5C15.3634 4.27314 15.6775 4.2485 15.8249 4.45489L17.8872 7.34212C17.9623 7.44721 18.029 7.55802 18.0868 7.67354L18.4509 8.40182C18.4835 8.46708 18.5089 8.53571 18.5266 8.60649L18.9104 10.1417C18.9699 10.3797 19 10.624 19 10.8693V12V12.5132C19 12.8356 18.948 13.156 18.846 13.4619L18.5 14.5L18 15.75" stroke="black" stroke-linecap="round" stroke-linejoin="round"/>
</svg>
